# xmcd
# 
# Track frame offsets:
#     150
#     16169
#     35076
#     38243
#     63207
#     79533
#     92923
#     108308
#     128596
#     149933
#     156907
#     175190
# 
# Disc length: 2678
# 
# Revision: 0
# Processed by: cddbd v1.5.2PL0 Copyright (c) Steve Scherf et al.
# Submitted via: fre:ac v1.0.27
# 
DISCID=9c0a740c
DTITLE=Andy Friedman - Laserbeams And Dreams
DYEAR=2011
DGENRE=Country-influenced Rock
TTITLE0=Time For Church
TTITLE1=Motel On The Lake
TTITLE2=Pretty Great (Theme)
TTITLE3=Nothing With My Time
TTITLE4=Old Pennsylvania
TTITLE5=Roll On, John Herald
TTITLE6=Quiet Blues
TTITLE7=May I Rest When Death Approaches
TTITLE8=Pretty Great
TTITLE9=Schroon Lake
TTITLE10=Going Home (Drifter's Blessing)
TTITLE11=Down By The Willow
EXTD=
EXTT0=
EXTT1=
EXTT2=
EXTT3=
EXTT4=
EXTT5=
EXTT6=
EXTT7=
EXTT8=
EXTT9=
EXTT10=
EXTT11=
PLAYORDER=
